<svg width="32" height="32" viewBox="0 0 32 32" fill="none" xmlns="http://www.w3.org/2000/svg">
<path d="M32 16.2462C32 18.315 31.5861 20.3635 30.7821 22.2749C29.978 24.1862 28.7994 25.9229 27.3137 27.3858C25.828 28.8487 24.0641 30.0091 22.1229 30.8008C20.1817 31.5925 18.1011 32 16 32C13.8988 32 11.8183 31.5925 9.87706 30.8008C7.93586 30.0091 6.17203 28.8487 4.68629 27.3858C3.20055 25.9229 2.022 24.1862 1.21793 22.2749C0.413852 20.3635 -1.83688e-07 18.315 0 16.2462L32 16.2462Z" fill="url(#paint0_linear_2_66)"/>
<path d="M16 0C20.2435 4.98243e-08 24.3131 1.65977 27.3137 4.61419C30.3143 7.56861 32 11.5757 32 15.7538L16 15.7538V0Z" fill="#005DA6"/>
<defs>
<linearGradient id="paint0_linear_2_66" x1="32" y1="0" x2="0" y2="0" gradientUnits="userSpaceOnUse">
<stop stop-color="#80CEF0"/>
<stop offset="1" stop-color="#51BCEA"/>
</linearGradient>
</defs>
</svg>
