<svg width="218" height="48" viewBox="0 0 218 48" fill="none" xmlns="http://www.w3.org/2000/svg">
<path d="M48 24.3692C48 27.4725 47.3792 30.5453 46.1731 33.4123C44.967 36.2794 43.1992 38.8844 40.9706 41.0787C38.742 43.273 36.0962 45.0137 33.1844 46.2012C30.2726 47.3888 27.1517 48 24 48C20.8483 48 17.7274 47.3888 14.8156 46.2012C11.9038 45.0137 9.25804 43.273 7.02944 41.0787C4.80083 38.8844 3.033 36.2794 1.82689 33.4123C0.620778 30.5453 -2.75533e-07 27.4725 0 24.3692L48 24.3692Z" fill="url(#paint0_linear_2_43)"/>
<path d="M24 0C30.3652 7.47364e-08 36.4697 2.48966 40.9706 6.92129C45.4714 11.3529 48 17.3635 48 23.6308L24 23.6308V0Z" fill="#005DA6"/>
<path d="M60.0356 17.81L61.336 17.4537V10.6314C61.336 10.3226 61.3122 10.1207 61.2647 10.0257C61.2172 9.91883 61.0925 9.82383 60.8906 9.7407L60 9.22413L60.0534 7.62096H69.7259C69.809 8.86787 69.8506 10.0851 69.8506 11.2726L68.5324 11.3617L67.2677 9.79414L64.5779 9.72289V12.8936L68.3721 12.5552V15.2984L64.5779 14.8887V16.7412C64.5779 17.0262 64.5957 17.2103 64.6314 17.2934C64.6789 17.3765 64.7917 17.4597 64.9698 17.5428L66.0386 18.1841L65.9852 19.6269H60.1247L60.0356 17.81Z" fill="#06213E"/>
<path d="M74.5138 19.8763C73.5638 19.8763 72.8572 19.5972 72.3941 19.0391C71.9309 18.4691 71.6994 17.614 71.6994 16.474V13.2855C71.6994 13.0242 71.6756 12.858 71.6281 12.7867C71.5925 12.7036 71.4915 12.6145 71.3253 12.5195L70.5237 12.092L70.6128 10.756C70.779 10.7323 70.8978 10.7085 70.969 10.6848C71.0997 10.661 71.5628 10.5779 72.3584 10.4354C73.166 10.2929 73.8369 10.2098 74.3713 10.186C74.5019 10.4829 74.6029 10.8273 74.6741 11.2192V15.708C74.6741 16.2306 74.686 16.5987 74.7098 16.8125C74.7454 17.0262 74.8404 17.1925 74.9948 17.3112C75.161 17.4181 75.4401 17.4715 75.832 17.4715C76.402 17.4715 76.9542 17.3706 77.4886 17.1687V13.2855C77.4886 13.0242 77.4708 12.858 77.4351 12.7867C77.3995 12.7036 77.3045 12.6145 77.1501 12.5195L76.3664 12.092L76.4376 10.756C77.3995 10.5779 78.1477 10.4413 78.6821 10.3463C79.2283 10.2513 79.7271 10.1979 80.1783 10.186C80.309 10.4829 80.4099 10.8273 80.4812 11.2192V17.0618C80.4812 17.2756 80.499 17.424 80.5346 17.5072C80.5702 17.5903 80.6534 17.6734 80.784 17.7565L81.4965 18.1662L81.4431 19.2706C80.9324 19.4013 80.3446 19.52 79.6796 19.6269C79.0146 19.7219 78.397 19.7813 77.827 19.805C77.7795 19.6625 77.7261 19.4844 77.6667 19.2706C77.6548 19.1756 77.6251 19.0628 77.5776 18.9322H77.5242C77.0373 19.2172 76.5207 19.4488 75.9745 19.6269C75.4401 19.7932 74.9532 19.8763 74.5138 19.8763Z" fill="#06213E"/>
<path d="M82.2145 17.9169L83.3189 17.5962V13.2855C83.3189 13.0242 83.301 12.858 83.2654 12.7867C83.2298 12.7036 83.1348 12.6145 82.9804 12.5195L82.1966 12.092L82.2501 10.756L82.642 10.6848C84.1976 10.376 85.3198 10.2098 86.0086 10.186C86.1036 10.4354 86.1808 10.7085 86.2402 11.0054C86.9646 10.6729 87.5524 10.4473 88.0037 10.3285C88.4668 10.1979 88.9003 10.1326 89.304 10.1326C91.1922 10.1326 92.1363 11.2607 92.1363 13.5171V17.0084C92.1363 17.2578 92.1541 17.424 92.1897 17.5072C92.2253 17.5903 92.3263 17.6794 92.4925 17.7744L93.3476 18.2731L93.2763 19.6091H88.3599L88.2709 17.9169L89.1437 17.6675V14.3008C89.1437 13.7664 89.1259 13.3924 89.0903 13.1786C89.0546 12.9649 88.9537 12.7986 88.7874 12.6798C88.6331 12.5611 88.354 12.5017 87.9502 12.5017C87.5227 12.5017 86.9824 12.567 86.3292 12.6977V17.0084C86.3292 17.2578 86.3471 17.424 86.3827 17.5072C86.4183 17.5903 86.5133 17.6794 86.6677 17.7744L87.5405 18.2731L87.4693 19.6091H82.3035L82.2145 17.9169Z" fill="#06213E"/>
<path d="M97.4117 19.8585C96.2717 19.8585 95.381 19.431 94.7398 18.5759C94.0985 17.7209 93.7779 16.5749 93.7779 15.138C93.7779 13.4874 94.2113 12.2405 95.0782 11.3973C95.957 10.5542 97.2039 10.1326 98.8189 10.1326C98.9139 10.1326 99.2227 10.1445 99.7452 10.1682V9.09944C99.7452 8.83818 99.7274 8.66599 99.6918 8.58286C99.6561 8.49973 99.5552 8.41067 99.3889 8.31566L98.5874 7.90597L98.6764 6.55218C99.8165 6.3503 100.66 6.21373 101.206 6.14248C101.752 6.05935 102.186 6.01185 102.506 5.99998C102.613 6.27311 102.69 6.58187 102.738 6.92625V17.0618C102.738 17.2756 102.756 17.424 102.791 17.5072C102.839 17.5903 102.94 17.6734 103.094 17.7565L103.771 18.1662L103.7 19.2706C102.536 19.5675 101.396 19.7457 100.28 19.805C100.196 19.5794 100.113 19.3063 100.03 18.9856C99.2227 19.5675 98.3499 19.8585 97.4117 19.8585ZM98.4449 17.5784C98.8367 17.5784 99.2761 17.4478 99.763 17.1865V12.573C99.4068 12.4186 98.9496 12.3414 98.3914 12.3414C97.9402 12.3414 97.5067 12.4008 97.0911 12.5195C96.9961 12.7452 96.9189 13.0539 96.8595 13.4458C96.812 13.8377 96.7882 14.2711 96.7882 14.7461C96.7882 15.7199 96.9189 16.4384 97.1801 16.9015C97.4533 17.3528 97.8748 17.5784 98.4449 17.5784Z" fill="#06213E"/>
<path d="M107.202 19.8585C106.395 19.8585 105.748 19.6388 105.261 19.1994C104.774 18.7481 104.53 18.1722 104.53 17.4715C104.53 16.5334 104.999 15.7971 105.938 15.2627C106.888 14.7283 108.265 14.4255 110.07 14.3543C110.07 13.7961 110.023 13.3864 109.928 13.1252C109.845 12.852 109.684 12.668 109.447 12.573C109.221 12.4661 108.871 12.4126 108.396 12.4126C107.909 12.4126 107.564 12.4305 107.363 12.4661L106.632 13.9089L105.314 13.8199C105.112 12.8698 104.97 11.8842 104.887 10.8629C105.552 10.6373 106.276 10.4592 107.06 10.3285C107.855 10.1979 108.598 10.1326 109.286 10.1326C110.545 10.1326 111.448 10.382 111.994 10.8807C112.54 11.3676 112.813 12.1811 112.813 13.3211V17.044C112.813 17.2578 112.831 17.4062 112.867 17.4893C112.914 17.5725 113.009 17.6556 113.152 17.7387L113.864 18.1484L113.793 19.2528C112.416 19.5735 111.329 19.7516 110.533 19.7872C110.51 19.716 110.474 19.5913 110.426 19.4131C110.379 19.2231 110.337 19.045 110.302 18.8788C109.839 19.1756 109.328 19.4131 108.77 19.5913C108.224 19.7694 107.701 19.8585 107.202 19.8585ZM108.396 17.8456C108.871 17.8456 109.447 17.6853 110.124 17.3647L110.052 16.0109C109.767 15.9871 109.577 15.9752 109.482 15.9752C109.162 15.9752 108.788 16.0109 108.36 16.0821C107.933 16.1415 107.594 16.2128 107.345 16.2959C107.309 16.4503 107.291 16.5928 107.291 16.7234C107.291 17.0796 107.386 17.3587 107.576 17.5606C107.778 17.7506 108.051 17.8456 108.396 17.8456Z" fill="#06213E"/>
<path d="M120.003 20.4997C120.359 20.6304 120.626 20.7847 120.804 20.9629C120.982 21.141 121.071 21.3904 121.071 21.711C121.071 22.3404 120.733 22.8214 120.056 23.1539C119.391 23.4983 118.477 23.6704 117.313 23.6704L117.135 23.0114C117.562 23.0114 117.954 22.9757 118.31 22.9045C118.667 22.8332 118.928 22.7382 119.094 22.6195C119.118 22.477 119.13 22.3642 119.13 22.281C119.13 22.0792 119.041 21.9367 118.863 21.8535C118.684 21.7704 118.304 21.6932 117.723 21.622V21.2657L118.15 19.8228C116.951 19.7041 116.024 19.2291 115.371 18.3978C114.718 17.5547 114.392 16.4443 114.392 15.0668C114.392 13.5111 114.795 12.2998 115.603 11.4329C116.422 10.566 117.538 10.1326 118.952 10.1326C120.02 10.1326 121.166 10.376 122.39 10.8629C122.366 11.2073 122.312 11.6645 122.229 12.2345C122.146 12.7927 122.057 13.3092 121.962 13.7842L120.769 13.8911L119.664 12.4839C119.367 12.4245 119.035 12.3948 118.667 12.3948C118.37 12.3948 118.097 12.4126 117.847 12.4483C117.574 12.9708 117.438 13.7071 117.438 14.6571C117.438 15.6309 117.61 16.3553 117.954 16.8303C118.298 17.2934 118.821 17.525 119.522 17.525C119.854 17.525 120.258 17.4775 120.733 17.3825C121.208 17.2756 121.695 17.1271 122.194 16.9371L122.621 18.7184C122.217 19.0035 121.713 19.2528 121.107 19.4666C120.513 19.6685 119.908 19.7932 119.29 19.8407L119.005 20.2504C119.29 20.3097 119.623 20.3929 120.003 20.4997Z" fill="#06213E"/>
<path d="M126.303 19.8585C125.495 19.8585 124.848 19.6388 124.361 19.1994C123.874 18.7481 123.631 18.1722 123.631 17.4715C123.631 16.5334 124.1 15.7971 125.038 15.2627C125.988 14.7283 127.365 14.4255 129.17 14.3543C129.17 13.7961 129.123 13.3864 129.028 13.1252C128.945 12.852 128.784 12.668 128.547 12.573C128.321 12.4661 127.971 12.4126 127.496 12.4126C127.009 12.4126 126.665 12.4305 126.463 12.4661L125.733 13.9089L124.414 13.8199C124.212 12.8698 124.07 11.8842 123.987 10.8629C124.652 10.6373 125.376 10.4592 126.16 10.3285C126.956 10.1979 127.698 10.1326 128.387 10.1326C129.645 10.1326 130.548 10.382 131.094 10.8807C131.64 11.3676 131.914 12.1811 131.914 13.3211V17.044C131.914 17.2578 131.931 17.4062 131.967 17.4893C132.015 17.5725 132.11 17.6556 132.252 17.7387L132.965 18.1484L132.893 19.2528C131.516 19.5735 130.429 19.7516 129.634 19.7872C129.61 19.716 129.574 19.5913 129.527 19.4131C129.479 19.2231 129.438 19.045 129.402 18.8788C128.939 19.1756 128.428 19.4131 127.87 19.5913C127.324 19.7694 126.801 19.8585 126.303 19.8585ZM127.496 17.8456C127.971 17.8456 128.547 17.6853 129.224 17.3647L129.153 16.0109C128.868 15.9871 128.678 15.9752 128.583 15.9752C128.262 15.9752 127.888 16.0109 127.46 16.0821C127.033 16.1415 126.694 16.2128 126.445 16.2959C126.409 16.4503 126.392 16.5928 126.392 16.7234C126.392 17.0796 126.487 17.3587 126.677 17.5606C126.878 17.7506 127.152 17.8456 127.496 17.8456ZM129.491 9.01037C129.123 9.01037 128.571 8.87974 127.834 8.61848C127.597 8.53536 127.359 8.46411 127.122 8.40473C126.884 8.33348 126.688 8.29785 126.534 8.29785C126.463 8.33348 126.38 8.39879 126.285 8.49379C126.202 8.57692 126.107 8.69567 126 8.85005H125.02C125.21 8.00691 125.459 7.38939 125.768 6.9975C126.089 6.60562 126.493 6.40968 126.979 6.40968C127.217 6.40968 127.46 6.4453 127.71 6.51655C127.971 6.57593 128.28 6.67093 128.636 6.80156C128.695 6.82531 128.874 6.88469 129.17 6.97969C129.467 7.07469 129.729 7.12219 129.954 7.12219C130.014 7.08657 130.085 7.02125 130.168 6.92625C130.251 6.83125 130.352 6.7125 130.471 6.56999H131.45C131.26 7.41314 131.005 8.03066 130.685 8.42254C130.376 8.81443 129.978 9.01037 129.491 9.01037Z" fill="#06213E"/>
<path d="M137.981 19.8585C136.472 19.8585 135.344 19.4725 134.596 18.7006C133.86 17.9287 133.492 16.7471 133.492 15.1558C133.492 14.1346 133.676 13.2439 134.044 12.4839C134.424 11.7239 134.964 11.142 135.665 10.7382C136.366 10.3345 137.191 10.1326 138.141 10.1326C141.217 10.1326 142.754 11.7239 142.754 14.9065C142.754 16.4621 142.333 17.6794 141.49 18.5581C140.659 19.425 139.489 19.8585 137.981 19.8585ZM138.266 17.7744C138.503 17.7744 138.711 17.7565 138.889 17.7209C139.067 17.6734 139.257 17.6022 139.459 17.5072C139.53 17.234 139.59 16.8837 139.637 16.4562C139.685 16.0287 139.708 15.619 139.708 15.2271C139.708 14.2652 139.554 13.5349 139.245 13.0361C138.948 12.5373 138.503 12.288 137.909 12.288C137.517 12.288 137.12 12.3414 136.716 12.4483C136.633 12.6264 136.567 12.9173 136.52 13.3211C136.472 13.713 136.449 14.1643 136.449 14.6749C136.449 15.6724 136.603 16.4384 136.912 16.9728C137.232 17.5072 137.684 17.7744 138.266 17.7744Z" fill="#06213E"/>
<path d="M62.7254 42C62.0485 41.6319 61.5379 41.3231 61.1935 41.0737C60.8491 40.8244 60.4513 40.4562 60 39.9693L61.4429 38.2237V30.8491C61.4429 30.5403 61.4191 30.3385 61.3716 30.2434C61.3241 30.1366 61.1994 30.0416 60.9975 29.9584L60.0891 29.4241L60.1603 27.8387H65.8783L65.9674 29.6556L64.667 30.0119V35.712C64.667 36.9708 64.5661 38.004 64.3642 38.8115C64.1623 39.6071 63.8001 40.4087 63.2776 41.2162L62.7254 42Z" fill="#06213E"/>
<path d="M72.5076 40.094C70.5363 40.094 69.0638 39.5953 68.09 38.5977C67.1281 37.6002 66.6472 36.0861 66.6472 34.0554C66.6472 32.7373 66.8906 31.5972 67.3775 30.6353C67.8644 29.6616 68.5591 28.9134 69.4616 28.3909C70.3641 27.8684 71.4389 27.6071 72.6858 27.6071C76.6521 27.6071 78.6353 29.6319 78.6353 33.6814C78.6353 35.0114 78.3919 36.1574 77.905 37.1193C77.4181 38.0812 76.7115 38.8174 75.7852 39.3281C74.8708 39.8387 73.7783 40.094 72.5076 40.094ZM72.8817 37.6358C73.5586 37.6358 74.2058 37.4636 74.8233 37.1193C74.954 36.7511 75.0549 36.2939 75.1261 35.7477C75.1974 35.1895 75.233 34.6433 75.233 34.1089C75.233 32.7907 74.9836 31.7932 74.4849 31.1163C73.998 30.4394 73.2795 30.1009 72.3295 30.1009C71.6526 30.1009 70.9995 30.2256 70.3701 30.475C70.2395 30.7006 70.1385 31.0747 70.0673 31.5972C69.996 32.1079 69.9604 32.6957 69.9604 33.3607C69.9604 34.7383 70.2098 35.7952 70.7085 36.5314C71.2073 37.2677 71.9317 37.6358 72.8817 37.6358Z" fill="#06213E"/>
<path d="M83.6151 40.0584C82.3089 40.0584 80.9848 39.8565 79.6429 39.4528C79.7022 38.2771 79.7972 37.1846 79.9279 36.1752L81.2995 35.908L82.1901 37.4221C82.9026 37.6715 83.532 37.7961 84.0783 37.7961C84.2683 37.7961 84.672 37.7427 85.2896 37.6358C85.3133 37.3983 85.3252 37.238 85.3252 37.1549C85.3252 36.8699 85.2777 36.6561 85.1827 36.5136C85.0877 36.3592 84.8799 36.193 84.5592 36.0149C84.2386 35.8248 83.6626 35.5458 82.8314 35.1776C81.8101 34.6789 81.0738 34.1445 80.6226 33.5745C80.1713 32.9926 79.9457 32.3098 79.9457 31.526C79.9457 30.3028 80.3613 29.3469 81.1926 28.6581C82.0239 27.9693 83.1639 27.6249 84.6127 27.6249C85.3133 27.6249 86.008 27.6962 86.6968 27.8387C87.3974 27.9693 88.009 28.1534 88.5315 28.3909C88.5078 29.0559 88.4543 29.8813 88.3712 30.8669L88.3178 31.6329L87.0174 31.8288L85.6636 30.1009C85.2361 29.9703 84.7017 29.905 84.0605 29.905C83.6567 29.905 83.3539 29.9406 83.152 30.0119C83.0926 30.2494 83.0629 30.4335 83.0629 30.5641C83.0629 30.8253 83.1283 31.0569 83.2589 31.2588C83.3895 31.4488 83.6211 31.6507 83.9536 31.8644C84.2861 32.0663 84.7789 32.3216 85.4321 32.6304C86.3821 33.0817 87.1006 33.4795 87.5874 33.8239C88.0743 34.1682 88.4128 34.5304 88.6028 34.9105C88.8047 35.2786 88.9056 35.7298 88.9056 36.2642C88.9056 37.4399 88.4365 38.3662 87.4984 39.0431C86.5602 39.72 85.2658 40.0584 83.6151 40.0584Z" fill="#06213E"/>
<path d="M95.7174 40.0762C93.9717 40.0762 92.6892 39.619 91.8698 38.7046C91.0623 37.7783 90.6585 36.3295 90.6585 34.3582V30.8491C90.6585 30.5403 90.6348 30.3385 90.5873 30.2434C90.5516 30.1366 90.4388 30.0416 90.2488 29.9584L89.6788 29.62L89.7322 27.8387H95.2899L95.3789 29.6022L93.9005 30.0119V33.6635C93.9005 34.8986 94.0786 35.8724 94.4349 36.5849C94.7911 37.2974 95.4027 37.6536 96.2696 37.6536C96.5546 37.6536 96.8277 37.6121 97.089 37.529C97.3621 37.4458 97.5937 37.333 97.7837 37.1905C97.9024 36.9174 97.9856 36.5552 98.0331 36.1039C98.0806 35.6408 98.1043 35.0233 98.1043 34.2514V30.8491C98.1043 30.5403 98.0806 30.3385 98.0331 30.2434C97.9856 30.1366 97.8609 30.0416 97.659 29.9584L96.7862 29.4597L96.8752 27.8387H102.166L102.255 29.7625L101.328 30.0119V34.0376C101.328 35.9495 100.836 37.434 99.85 38.4909C98.8762 39.5478 97.4987 40.0762 95.7174 40.0762Z" fill="#06213E"/>
<path d="M103.126 38.0277L104.427 37.6715V30.8491C104.427 30.5403 104.403 30.3385 104.355 30.2434C104.308 30.1366 104.183 30.0416 103.981 29.9584L103.091 29.4419L103.144 27.8387H112.817C112.9 29.0856 112.941 30.3028 112.941 31.4904L111.623 31.5794L110.358 30.0119L107.669 29.9406V32.8441L111.463 32.5235V35.2667L107.669 34.857V37.7249L110.626 37.6715L111.997 36.1039L113.315 36.193C113.268 37.4399 113.179 38.6571 113.048 39.8446H103.215L103.126 38.0277ZM108.72 23.6705H111.926V24.4008L108.577 26.7521H107.027L108.72 23.6705Z" fill="#06213E"/>
<path d="M121.476 31.9713L121.084 37.2439V37.3152C121.084 37.5408 121.167 37.6893 121.333 37.7605L122.437 38.2237L122.259 39.8446H117.824L117.646 38.2593L118.465 37.7605L119.48 30.8847C119.492 30.8016 119.498 30.7006 119.498 30.5819C119.498 30.4394 119.463 30.3325 119.391 30.2613C119.332 30.19 119.213 30.1009 119.035 29.9941L118.216 29.5309L118.323 27.8387H123.435L125.982 36.1395L128.512 27.8387H133.286L133.357 29.7091L132.217 29.9941L133.179 36.9768C133.214 37.2143 133.262 37.3983 133.321 37.529C133.392 37.6596 133.547 37.8733 133.784 38.1702L134.158 38.6512L134.051 39.8446H128.743L128.583 38.2058L130.044 37.8318L129.438 31.8644L127.158 39.9159L124.112 40.1831L121.476 31.9713Z" fill="#06213E"/>
<path d="M140.594 40.094C138.622 40.094 137.15 39.5953 136.176 38.5977C135.214 37.6002 134.733 36.0861 134.733 34.0554C134.733 32.7373 134.977 31.5972 135.463 30.6353C135.95 29.6616 136.645 28.9134 137.548 28.3909C138.45 27.8684 139.525 27.6071 140.772 27.6071C144.738 27.6071 146.721 29.6319 146.721 33.6814C146.721 35.0114 146.478 36.1574 145.991 37.1193C145.504 38.0812 144.797 38.8174 143.871 39.3281C142.957 39.8387 141.864 40.094 140.594 40.094ZM140.968 37.6358C141.645 37.6358 142.292 37.4636 142.909 37.1193C143.04 36.7511 143.141 36.2939 143.212 35.7477C143.283 35.1895 143.319 34.6433 143.319 34.1089C143.319 32.7907 143.07 31.7932 142.571 31.1163C142.084 30.4394 141.365 30.1009 140.415 30.1009C139.739 30.1009 139.085 30.2256 138.456 30.475C138.325 30.7006 138.224 31.0747 138.153 31.5972C138.082 32.1079 138.046 32.6957 138.046 33.3607C138.046 34.7383 138.296 35.7952 138.794 36.5314C139.293 37.2677 140.018 37.6358 140.968 37.6358Z" fill="#06213E"/>
<path d="M150.708 32.2563L151.011 36.9233C151.022 37.1964 151.052 37.3746 151.1 37.4577C151.147 37.5408 151.254 37.6299 151.42 37.7249L152.347 38.3484L152.275 39.8446H147.644L147.555 37.903L148.517 37.6715L148.588 30.6531C148.588 30.4275 148.57 30.2731 148.535 30.19C148.499 30.1069 148.416 30.0119 148.285 29.905L147.626 29.4062L147.751 27.8387H151.438L156.818 34.7323L156.568 30.76C156.556 30.475 156.527 30.291 156.479 30.2078C156.432 30.1247 156.325 30.0356 156.158 29.9406L155.232 29.335L155.286 27.8387H159.881L159.953 29.6556L159.044 30.0475L158.973 39.6843L156.924 40.3612L150.708 32.2563Z" fill="#06213E"/>
<path d="M163.445 38.099L164.995 37.6715V29.9584L163.498 30.0831L162.18 31.6685L160.88 31.5616C160.88 30.576 160.927 29.335 161.022 27.8387H172.173C172.268 29.335 172.316 30.576 172.316 31.5616L171.033 31.6685L169.697 30.0831L168.237 29.9584V36.9589C168.237 37.2439 168.254 37.428 168.29 37.5111C168.326 37.5943 168.427 37.6774 168.593 37.7605L169.697 38.4196L169.626 39.8446H163.534L163.445 38.099Z" fill="#06213E"/>
<path d="M173.317 38.0277L174.617 37.6715V30.8491C174.617 30.5403 174.594 30.3385 174.546 30.2434C174.499 30.1366 174.374 30.0416 174.172 29.9584L173.281 29.4419L173.335 27.8387H183.007C183.09 29.0856 183.132 30.3028 183.132 31.4904L181.814 31.5794L180.549 30.0119L177.859 29.9406V32.8441L181.654 32.5235V35.2667L177.859 34.857V37.7249L180.816 37.6715L182.188 36.1039L183.506 36.193C183.459 37.4399 183.37 38.6571 183.239 39.8446H173.406L173.317 38.0277Z" fill="#06213E"/>
<path d="M184.415 37.9743L185.538 37.6715V30.8491C185.538 30.5403 185.514 30.3385 185.466 30.2434C185.431 30.1366 185.318 30.0416 185.128 29.9584L184.38 29.5309L184.433 27.8387H189.991L190.08 29.6556L188.762 30.0119V37.7071L191.006 37.6536L192.52 35.9258L193.892 35.997C193.868 36.9946 193.785 38.2771 193.643 39.8446H184.504L184.415 37.9743Z" fill="#06213E"/>
<path d="M194.818 37.9743L195.94 37.6715V30.8491C195.94 30.5403 195.916 30.3385 195.869 30.2434C195.833 30.1366 195.72 30.0416 195.53 29.9584L194.782 29.5309L194.836 27.8387H200.393L200.482 29.6556L199.164 30.0119V37.7071L201.409 37.6536L202.923 35.9258L204.294 35.997C204.271 36.9946 204.188 38.2771 204.045 39.8446H194.907L194.818 37.9743Z" fill="#06213E"/>
<path d="M211.045 40.094C209.074 40.094 207.601 39.5953 206.628 38.5977C205.666 37.6002 205.185 36.0861 205.185 34.0554C205.185 32.7373 205.428 31.5972 205.915 30.6353C206.402 29.6616 207.097 28.9134 207.999 28.3909C208.902 27.8684 209.976 27.6071 211.223 27.6071C215.19 27.6071 217.173 29.6319 217.173 33.6814C217.173 35.0114 216.929 36.1574 216.443 37.1193C215.956 38.0812 215.249 38.8174 214.323 39.3281C213.408 39.8387 212.316 40.094 211.045 40.094ZM211.419 37.6358C212.096 37.6358 212.743 37.4636 213.361 37.1193C213.492 36.7511 213.593 36.2939 213.664 35.7477C213.735 35.1895 213.771 34.6433 213.771 34.1089C213.771 32.7907 213.521 31.7932 213.023 31.1163C212.536 30.4394 211.817 30.1009 210.867 30.1009C210.19 30.1009 209.537 30.2256 208.908 30.475C208.777 30.7006 208.676 31.0747 208.605 31.5972C208.534 32.1079 208.498 32.6957 208.498 33.3607C208.498 34.7383 208.747 35.7952 209.246 36.5314C209.745 37.2677 210.469 37.6358 211.419 37.6358Z" fill="#06213E"/>
<defs>
<linearGradient id="paint0_linear_2_43" x1="48" y1="0" x2="0" y2="0" gradientUnits="userSpaceOnUse">
<stop stop-color="#80CEF0"/>
<stop offset="1" stop-color="#51BCEA"/>
</linearGradient>
</defs>
</svg>
